<svg width="1600" height="1000" viewBox="0 0 1600 1000" fill="none" xmlns="http://www.w3.org/2000/svg">
  <rect width="1600" height="1000" fill="#F7F4EC"/>
  <rect x="82" y="76" width="1436" height="848" rx="44" fill="#FCFBF7"/>
  <rect x="82" y="76" width="1436" height="848" rx="44" stroke="#D1FAE5" stroke-width="8"/>
  <path d="M170 792H1438" stroke="#CBD5E1" stroke-width="6" stroke-linecap="round"/>
  <path d="M214 756V250" stroke="#CBD5E1" stroke-width="6" stroke-linecap="round"/>
  <path d="M214 700C319 642 434 575 531 579C625 583 693 646 782 638C896 629 980 505 1113 448C1213 405 1326 413 1430 352" stroke="#0F766E" stroke-width="14" stroke-linecap="round"/>
  <path d="M214 642C292 613 341 535 442 489C558 436 638 460 744 413C838 372 902 286 1018 261C1142 233 1267 274 1426 220" stroke="#F59E0B" stroke-width="10" stroke-linecap="round" stroke-dasharray="18 16"/>
  <rect x="310" y="554" width="76" height="146" rx="26" fill="#14B8A6" fill-opacity="0.2" stroke="#0F766E" stroke-width="8"/>
  <rect x="430" y="478" width="76" height="222" rx="26" fill="#14B8A6" fill-opacity="0.32" stroke="#0F766E" stroke-width="8"/>
  <rect x="550" y="388" width="76" height="312" rx="26" fill="#14B8A6" fill-opacity="0.46" stroke="#0F766E" stroke-width="8"/>
  <rect x="670" y="512" width="76" height="188" rx="26" fill="#14B8A6" fill-opacity="0.26" stroke="#0F766E" stroke-width="8"/>
  <rect x="790" y="424" width="76" height="276" rx="26" fill="#14B8A6" fill-opacity="0.4" stroke="#0F766E" stroke-width="8"/>
  <circle cx="1114" cy="446" r="100" fill="#0F766E" fill-opacity="0.08"/>
  <circle cx="1114" cy="446" r="54" fill="#0F766E" fill-opacity="0.18"/>
  <circle cx="1114" cy="446" r="20" fill="#0F766E"/>
  <rect x="1026" y="594" width="310" height="166" rx="32" fill="#0F172A"/>
  <rect x="1062" y="630" width="172" height="20" rx="10" fill="#F8FAFC" fill-opacity="0.84"/>
  <rect x="1062" y="670" width="216" height="14" rx="7" fill="#94A3B8" fill-opacity="0.72"/>
  <rect x="1062" y="702" width="190" height="14" rx="7" fill="#94A3B8" fill-opacity="0.52"/>
  <path d="M1282 654L1324 696L1388 620" stroke="#10B981" stroke-width="12" stroke-linecap="round" stroke-linejoin="round"/>
</svg>