<svg width="1600" height="1000" viewBox="0 0 1600 1000" fill="none" xmlns="http://www.w3.org/2000/svg">
  <rect width="1600" height="1000" fill="#F7F4EC"/>
  <rect x="78" y="70" width="1444" height="860" rx="44" fill="#0F172A"/>
  <rect x="116" y="110" width="1368" height="780" rx="34" fill="url(#paint0_linear)"/>
  <path d="M198 722C328 655 429 603 545 596C663 590 720 629 832 640C952 652 1050 617 1198 498C1288 425 1367 363 1450 324" stroke="#F8FAFC" stroke-opacity="0.24" stroke-width="10" stroke-linecap="round"/>
  <path d="M210 762C355 719 421 723 542 671C638 630 723 548 837 531C981 509 1095 594 1288 474C1351 434 1403 379 1450 332" stroke="#10B981" stroke-opacity="0.9" stroke-width="12" stroke-linecap="round"/>
  <rect x="260" y="430" width="48" height="238" rx="20" fill="#F59E0B" fill-opacity="0.95"/>
  <rect x="334" y="360" width="48" height="308" rx="20" fill="#10B981" fill-opacity="0.82"/>
  <rect x="408" y="502" width="48" height="166" rx="20" fill="#14B8A6" fill-opacity="0.9"/>
  <rect x="482" y="322" width="48" height="346" rx="20" fill="#F59E0B" fill-opacity="0.85"/>
  <rect x="556" y="460" width="48" height="208" rx="20" fill="#10B981" fill-opacity="0.82"/>
  <rect x="1066" y="242" width="256" height="160" rx="30" fill="#111827" fill-opacity="0.52" stroke="#F8FAFC" stroke-opacity="0.18"/>
  <rect x="1094" y="270" width="138" height="18" rx="9" fill="#F8FAFC" fill-opacity="0.8"/>
  <rect x="1094" y="306" width="180" height="14" rx="7" fill="#F8FAFC" fill-opacity="0.28"/>
  <rect x="1094" y="338" width="154" height="14" rx="7" fill="#F8FAFC" fill-opacity="0.2"/>
  <circle cx="1278" cy="320" r="50" fill="#10B981" fill-opacity="0.16"/>
  <circle cx="1278" cy="320" r="24" fill="#10B981"/>
  <path d="M763 204C826 165 914 159 985 191C1062 225 1118 303 1129 385" stroke="#F59E0B" stroke-width="10" stroke-linecap="round" stroke-dasharray="20 18"/>
  <circle cx="757" cy="207" r="18" fill="#F59E0B"/>
  <circle cx="1132" cy="389" r="18" fill="#F59E0B"/>
  <circle cx="836" cy="640" r="16" fill="#F8FAFC"/>
  <circle cx="1286" cy="475" r="16" fill="#F8FAFC"/>
  <circle cx="548" cy="671" r="16" fill="#F8FAFC"/>
  <defs>
    <linearGradient id="paint0_linear" x1="126" y1="144" x2="1457" y2="883" gradientUnits="userSpaceOnUse">
      <stop stop-color="#0F172A"/>
      <stop offset="0.52" stop-color="#12353B"/>
      <stop offset="1" stop-color="#1F2937"/>
    </linearGradient>
  </defs>
</svg>